<?xml version="1.0" encoding="utf-8"?>
<!-- Generator: Adobe Illustrator 22.0.1, SVG Export Plug-In . SVG Version: 6.00 Build 0)  -->
<svg version="1.1" id="Calque_1" xmlns="http://www.w3.org/2000/svg" xmlns:xlink="http://www.w3.org/1999/xlink" x="0px" y="0px"
	 viewBox="0 0 50 50" style="enable-background:new 0 0 50 50;" xml:space="preserve">
<path d="M28.2,0c-3.7,0-6.6,1-8.5,3c-1.9,1.9-2.8,4.5-2.8,7.8l0.8,0.1h-0.8v5.9h-3.8c-0.4,0-0.8,0.3-0.8,0.8V25
	c0,0.4,0.3,0.8,0.8,0.8h3.8v23.5c0,0.4,0.3,0.8,0.8,0.8h10.6c0.4,0,0.8-0.3,0.8-0.8V25.8h5.5c0.4,0,0.7-0.3,0.7-0.6
	c0,0,0.6-3.7,0.9-7.6c0-0.2-0.1-0.4-0.2-0.6c-0.1-0.2-0.3-0.2-0.6-0.2h-7.9v-4.8c0-0.4,0.7-1.2,1.4-1.2h6.9c0.4,0,0.8-0.3,0.8-0.8
	V0.8c0-0.4-0.3-0.8-0.8-0.8H28.2z M28.2,1.5H35v7.6h-6.1c-1.4,0-2.9,1.4-2.9,2.7v5.6c0,0.4,0.3,0.8,0.8,0.8h7.8
	c-0.2,2.6-0.5,5-0.7,6.1h-5.6c-0.4,0-0.8,0.3-0.8,0.8v23.5h-9.1V25c0-0.4-0.3-0.8-0.8-0.8h-3.8v-6.1h3.8c0.4,0,0.8-0.3,0.8-0.8v-6.6
	v-0.1c0-2.9,0.8-5.1,2.4-6.7C22.4,2.4,24.9,1.5,28.2,1.5z"/>
</svg>
