<?xml version="1.0" encoding="utf-8"?>
<!-- Generator: Adobe Illustrator 22.0.1, SVG Export Plug-In . SVG Version: 6.00 Build 0)  -->
<svg version="1.1" id="Calque_1" xmlns="http://www.w3.org/2000/svg" xmlns:xlink="http://www.w3.org/1999/xlink" x="0px" y="0px"
	 viewBox="0 0 64 64" style="enable-background:new 0 0 64 64;" xml:space="preserve">
<g id="surface1">
	<path d="M8.6,0C3.8,0,0,3.8,0,8.6v46.8C0,60.2,3.8,64,8.6,64h46.8c4.8,0,8.6-3.8,8.6-8.6V8.6C64,3.8,60.2,0,55.4,0H8.6z M8.6,2.5
		h46.8c3.4,0,6.2,2.7,6.2,6.2v46.8c0,3.4-2.7,6.2-6.2,6.2H8.6c-3.4,0-6.2-2.7-6.2-6.2V8.6C2.5,5.2,5.2,2.5,8.6,2.5z M51.7,8.6
		c-2.1,0-3.7,1.6-3.7,3.7s1.6,3.7,3.7,3.7s3.7-1.6,3.7-3.7S53.8,8.6,51.7,8.6z M51.7,10.5c1,0,1.8,0.9,1.8,1.8c0,1-0.9,1.8-1.8,1.8
		c-1,0-1.8-0.9-1.8-1.8S50.7,10.5,51.7,10.5z M32,14.8c-9.5,0-17.2,7.8-17.2,17.2S22.5,49.2,32,49.2S49.2,41.5,49.2,32
		S41.5,14.8,32,14.8z M32,17.2c8.1,0,14.8,6.6,14.8,14.8S40.1,46.8,32,46.8S17.2,40.1,17.2,32S23.9,17.2,32,17.2z M32,19.7
		c-6.8,0-12.3,5.5-12.3,12.3S25.2,44.3,32,44.3S44.3,38.8,44.3,32S38.8,19.7,32,19.7z M32,22.2c5.4,0,9.8,4.4,9.8,9.8
		s-4.4,9.8-9.8,9.8s-9.8-4.4-9.8-9.8S26.6,22.2,32,22.2z"/>
</g>
</svg>
