<?xml version="1.0" encoding="utf-8"?>
<!-- Generator: Adobe Illustrator 22.0.1, SVG Export Plug-In . SVG Version: 6.00 Build 0)  -->
<svg version="1.1"
	 id="svg2" inkscape:output_extension="org.inkscape.output.svg.inkscape" inkscape:version="0.45.1+0.46pre1+devel" sodipodi:docname="Akh_glyph.svg" sodipodi:version="0.32" xmlns:cc="http://creativecommons.org/ns#" xmlns:dc="http://purl.org/dc/elements/1.1/" xmlns:inkscape="http://www.inkscape.org/namespaces/inkscape" xmlns:rdf="http://www.w3.org/1999/02/22-rdf-syntax-ns#" xmlns:sodipodi="http://sodipodi.sourceforge.net/DTD/sodipodi-0.dtd" xmlns:svg="http://www.w3.org/2000/svg"
	 xmlns="http://www.w3.org/2000/svg" xmlns:xlink="http://www.w3.org/1999/xlink" x="0px" y="0px" viewBox="0 0 747.8 729.4"
	 style="enable-background:new 0 0 747.8 729.4;" xml:space="preserve">
<style type="text/css">
	.st0{fill:none;stroke:#000000;stroke-width:20;}
</style>
<defs>
	
	
		<inkscape:perspective  id="perspective19" inkscape:persp3d-origin="300 : 400 : 1" inkscape:vp_x="-50 : 600 : 1" inkscape:vp_y="0 : 1000 : 0" inkscape:vp_z="700 : 600 : 1" sodipodi:type="inkscape:persp3d">
		</inkscape:perspective>
	
		<inkscape:perspective  id="perspective10" inkscape:persp3d-origin="300 : 400 : 1" inkscape:vp_x="-50 : 600 : 1" inkscape:vp_y="0 : 1000 : 0" inkscape:vp_z="700 : 600 : 1" sodipodi:type="inkscape:persp3d">
		</inkscape:perspective>
	
		<inkscape:perspective  id="perspective2395" inkscape:persp3d-origin="300 : 400 : 1" inkscape:vp_x="-50 : 600 : 1" inkscape:vp_y="0 : 1000 : 0" inkscape:vp_z="700 : 600 : 1" sodipodi:type="inkscape:persp3d">
		</inkscape:perspective>
</defs>
<sodipodi:namedview  bordercolor="#666666" borderopacity="1.0" gridtolerance="10000" guidetolerance="10" id="base" inkscape:current-layer="layer1" inkscape:cx="357.95657" inkscape:cy="-28.620688" inkscape:document-units="px" inkscape:pageopacity="0.0" inkscape:pageshadow="2" inkscape:window-height="744" inkscape:window-width="1280" inkscape:window-x="7" inkscape:window-y="-9" inkscape:zoom="0.8864717" objecttolerance="10" pagecolor="#ffffff" showgrid="false">
	</sodipodi:namedview>
<g id="layer1" inkscape:groupmode="layer" inkscape:label="Layer 1">
	<path id="path2406" sodipodi:nodetypes="cscccssccccccccccccccszssccccsssccsssccccccccccccccc" class="st0" d="M533.9,193.6
		l-153.1-1.9c0,0,5.4-43.8,10.9-61.7c7.6-24.9,19.2-59.9,35.2-78.7c11.8-13.9,31.5-26.1,47.3-34.1c33.8-15,55-16.1,92.2-3.9
		c24,12.7,43.1,28.5,57,53.8c0,0,44.3,40.7,67.9,69.5c23.6,28.9,52.1,82.7,52.1,82.7 M531.2,5.6c-27.5,4-32,9.8-21.8,35.2
		c5.9,17.1,16.8,32.5,15.8,51.2c0,0-4.3,31.4-2.4,44.6c4.5,32,13.6,69.2,17.5,95.6c4.2,28.3-9.1,49.2-27.2,56
		c-16.1,6.1-174.6,21.8-265.6,75.4C193.3,395.5,70.4,465.9,70.4,465.9l21.8,1.3L9.8,542c0,0,42,13.2,60.6,14.4
		c55.6,1.5,97-40.6,151.6-48.5c18.6-4.3,39.1-8.5,54.6,6.6c5.4,5.8,10.9,24.9,10.9,24.9c101.2-52.4,194.8-119,289.8-181
		c24.4-25.3,35.5-52.8,24.3-89.2c-6.6-23.6-34-63-38.8-70.8c-20.9-40.7-39.4-69.6-12.1-111.5c4.9-7.9,46.5-25.5,73.5-19.1
		 M557.9,25.1c6,0,10.9,5,10.9,11.2s-4.9,11.2-10.9,11.2s-10.9-5-10.9-11.2S551.9,25.1,557.9,25.1z M91.1,468.2
		c94.7-9.3,190.6-15.9,283.7-36.4c24.5-7,74-18.4,97-35.4c11.9-8.8,35-17.4,38.8-40.7c4-24.6-8.1-27.5-15.8-34.1
		c-8.7-7.6-41.4-21.4-41.4-21.4 M377.2,564.3l50.9-108.9 M424.5,725.7l-67.9-220.4 M394.2,721.7l15.8-44.6 M606.4,724.4H309.3
		l-26.7-42l-1.2-118.1l6.1-23.6 M271.7,725.7l10.9-43.3"/>
</g>
</svg>
